<?xml version="1.0" standalone="no"?><!DOCTYPE svg PUBLIC "-//W3C//DTD SVG 1.1//EN" "http://www.w3.org/Graphics/SVG/1.1/DTD/svg11.dtd"><svg t="1553167115058" class="icon" style="" viewBox="0 0 1024 1024" version="1.1" xmlns="http://www.w3.org/2000/svg" p-id="2627" xmlns:xlink="http://www.w3.org/1999/xlink" width="200" height="200"><defs><style type="text/css"></style></defs><path d="M369.40572214 141.21142578H255.27236413C192.55695295 141.21142578 141.21142578 192.55695295 141.21142578 255.27236413V369.3333025c0 62.71541119 51.34552718 114.06093836 114.06093836 114.06093836H369.3333025c62.71541119 0 114.06093836-51.34552718 114.06093836-114.06093836V255.27236413C483.4666605 192.55695295 432.12113332 141.21142578 369.40572214 141.21142578z m399.32191373 0H654.59427786c-62.71541119 0-114.06093836 51.34552718-114.06093836 114.06093836V369.3333025c0 62.71541119 51.34552718 114.06093836 114.06093836 114.06093836h114.06093835c62.71541119 0 114.06093836-51.34552718 114.06093837-114.06093836V255.27236413C882.78857422 192.55695295 831.44304705 141.21142578 768.72763587 141.21142578zM369.40572214 540.5333395H255.27236413C192.55695295 540.5333395 141.21142578 591.87886668 141.21142578 654.59427786v114.06093835C141.21142578 831.44304705 192.55695295 882.78857422 255.27236413 882.78857422H369.3333025c62.71541119 0 114.06093836-51.34552718 114.06093836-114.06093836V654.59427786c0.07241965-62.71541119-51.27310752-114.06093836-113.98851872-114.06093836z m399.32191373 0H654.59427786c-62.71541119 0-114.06093836 51.34552718-114.06093836 114.06093836v114.06093835c0 62.71541119 51.34552718 114.06093836 114.06093836 114.06093837h114.06093835c62.71541119 0 114.06093836-51.34552718 114.06093837-114.06093837V654.59427786c0.07241965-62.71541119-51.27310752-114.06093836-113.98851872-114.06093836z" fill="#707070" p-id="2628"></path></svg>