<?xml version="1.0" standalone="no"?><!DOCTYPE svg PUBLIC "-//W3C//DTD SVG 1.1//EN" "http://www.w3.org/Graphics/SVG/1.1/DTD/svg11.dtd"><svg t="1552566412156" class="icon" style="" viewBox="0 0 1024 1024" version="1.1" xmlns="http://www.w3.org/2000/svg" p-id="3271" xmlns:xlink="http://www.w3.org/1999/xlink" width="200" height="200"><defs><style type="text/css"></style></defs><path d="M679.4 219.72c33.6 20.37 60.72 154.58-22.68 159.65-3.68 0.22-7.27 0.33-10.74 0.33-171.09 0-100.09-265.36-100.09-265.36-242.54 72.28-177.81 315.12-177.81 315.12s-70.61-73.12-52.95-175.92c-102.8 65.86-78.52 236.81-78.52 236.81s-63.37-27.46-48.77-114.11c-28.61 52.1-41.18 104.45-41.18 168.08 0 201.77 163.57 365.34 365.34 365.34s365.34-163.57 365.34-365.34c0-141.4-80.42-263.88-197.93-324.6zM402.86 738.17h-40.08V658h-59.21v80.16h-40.08V558.71h40.08v60.12h59.21v-60.12h40.08v179.46zM586 717.87q-22.48 23.36-60.11 23.36-38.1 0-60.58-23.24t-22.49-64q0-26.1 7.81-43.81a80.4 80.4 0 0 1 15.9-23.42 66.52 66.52 0 0 1 22.08-15.38q16-6.76 36.81-6.76 37.75 0 60.41 23.42t22.66 65.12q0 41.36-22.49 64.72z m172.59-119.08H708l0.3 139.37h-34.45l-0.3-139.37h-50.68l0.3-40.08h135.72l-0.3 40.08z m-232.82-4.71q-21.32 0-34.37 14.62t-13 44.1q0 29 13.4 44t34 15q20.62 0 33.84-14.85t13.22-44.56q0-29.36-12.87-43.8t-34.19-14.45z" p-id="3272" fill="#666666"></path></svg>