<?xml version="1.0" standalone="no"?><!DOCTYPE svg PUBLIC "-//W3C//DTD SVG 1.1//EN" "http://www.w3.org/Graphics/SVG/1.1/DTD/svg11.dtd"><svg t="1562427633506" class="icon" viewBox="0 0 1024 1024" version="1.1" xmlns="http://www.w3.org/2000/svg" p-id="2007" xmlns:xlink="http://www.w3.org/1999/xlink" width="200" height="200"><defs><style type="text/css"></style></defs><path d="M378.7 378.7c0 22.2-7.8 41.1-23.3 56.7-15.6 15.6-34.4 23.3-56.7 23.3-22.2 0-41.1-7.8-56.7-23.3-15.6-15.6-23.3-34.4-23.3-56.7 0-22.2 7.8-41.1 23.3-56.7 15.6-15.6 34.4-23.3 56.7-23.3 22.2 0 41.1 7.8 56.7 23.3 15.5 15.6 23.3 34.5 23.3 56.7z m426.6 160v186.7H218.7v-80L352 512l66.7 66.7L632 365.4l173.3 173.3z m40-293.4H178.7c-3.6 0-6.7 1.3-9.4 3.9-2.6 2.6-4 5.8-3.9 9.4v506.7c0 3.6 1.3 6.7 3.9 9.4 2.6 2.6 5.8 4 9.4 4h666.7c3.6 0 6.7-1.3 9.4-4 2.6-2.6 4-5.8 4-9.4V258.7c0-3.6-1.3-6.7-4-9.4s-5.9-4-9.5-4z m66.7 13.4v506.7c0 18.3-6.5 34-19.6 47.1-13.1 13.1-28.7 19.6-47.1 19.6H178.7c-18.3 0-34-6.5-47.1-19.6-13.1-13.1-19.6-28.8-19.6-47.1V258.7c0-18.3 6.5-34 19.6-47.1 13.1-13.1 28.7-19.6 47.1-19.6h666.7c18.3 0 34 6.5 47.1 19.6 13 13 19.5 28.7 19.5 47.1z m0 0" p-id="2008" fill="#8a8a8a"></path></svg>