<?xml version="1.0" standalone="no"?><!DOCTYPE svg PUBLIC "-//W3C//DTD SVG 1.1//EN" "http://www.w3.org/Graphics/SVG/1.1/DTD/svg11.dtd"><svg t="1562395612946" class="icon" viewBox="0 0 1024 1024" version="1.1" xmlns="http://www.w3.org/2000/svg" p-id="7898" xmlns:xlink="http://www.w3.org/1999/xlink" width="200" height="200"><defs><style type="text/css"></style></defs><path d="M166.4 512c0-72.96 59.306667-132.266667 132.266667-132.266667l170.666667 0 0-81.066667-170.666667 0c-117.76 0-213.333333 95.573333-213.333333 213.333333s95.573333 213.333333 213.333333 213.333333l170.666667 0 0-81.066667-170.666667 0c-72.96 0-132.266667-59.306667-132.266667-132.266667zM341.333333 554.666667l341.333333 0 0-85.333333-341.333333 0 0 85.333333zM725.333333 298.666667l-170.666667 0 0 81.066667 170.666667 0c72.96 0 132.266667 59.306667 132.266667 132.266667s-59.306667 132.266667-132.266667 132.266667l-170.666667 0 0 81.066667 170.666667 0c117.76 0 213.333333-95.573333 213.333333-213.333333s-95.573333-213.333333-213.333333-213.333333z" p-id="7899" fill="#8a8a8a"></path></svg>