<?xml version="1.0" standalone="no"?><!DOCTYPE svg PUBLIC "-//W3C//DTD SVG 1.1//EN" "http://www.w3.org/Graphics/SVG/1.1/DTD/svg11.dtd"><svg t="1563005075765" class="icon" viewBox="0 0 1024 1024" version="1.1" xmlns="http://www.w3.org/2000/svg" p-id="2094" xmlns:xlink="http://www.w3.org/1999/xlink" width="200" height="200"><defs><style type="text/css"></style></defs><path d="M512 302c-162.377 0-304.149 85.065-380 211.5C207.851 639.935 349.623 725 512 725s304.149-85.065 380-211.5C816.149 387.065 674.377 302 512 302z m0-88.35c189.522 0 361.931 97.994 455.762 254.399a88.35 88.35 0 0 1 0 90.902C873.932 715.356 701.522 813.35 512 813.35S150.069 715.356 56.238 558.951a88.35 88.35 0 0 1 0-90.902C150.068 311.644 322.478 213.65 512 213.65z m0.5 428.525c-71.065 0-128.675-57.61-128.675-128.675 0-71.065 57.61-128.675 128.675-128.675 71.065 0 128.675 57.61 128.675 128.675 0 71.065-57.61 128.675-128.675 128.675z m0-88.35c22.27 0 40.325-18.054 40.325-40.325 0-22.27-18.054-40.325-40.325-40.325-22.27 0-40.325 18.054-40.325 40.325 0 22.27 18.054 40.325 40.325 40.325z" p-id="2095" fill="#bfbfbf"></path></svg>